#!OML:ASF X:\2005_08_12_Meinard\c3d\meinard.ASF
:FULLY-SPECIFIED
:DEGREES
829
root 3.77269 16.5618 -1.42329 131.573 -81.9454 -149.359
lowerback 32.9338 -1.82842 1.13761
upperback 6.36722 -2.72723 0.279706
thorax -9.87823 -1.6414 0.769419
lowerneck -12.6495 -2.37369 -5.8343
upperneck 2.81458 -2.73852 6.64895
head 3.05062 -1.16805 2.79734
rclavicle -1.10325e-014 -7.15625e-015
rhumerus -37.0654 -11.2102 -78.202
rradius 30.9098
rwrist 31.0556
rhand -4.47344 -5.12194
rfingers 7.12502
rthumb 21.2993 -33.9715
lclavicle -1.10325e-014 -7.15625e-015
lhumerus -14.3312 27.365 82.0701
lradius 32.7027
lwrist -227.354
lhand -11.6178 6.04908
lfingers 7.12502
lthumb 14.4253 35.5278
rfemur -173.954 -174.465 203.178
rtibia 38.595
rfoot 155.93 154.554
rtoes 1.42701
lfemur 1.40115 3.64825 -14.6506
ltibia 46.5187
lfoot -22.4435 23.2749
ltoes 14.4344
830
root 3.78437 16.5633 -1.40226 130.966 -82.1085 -148.686
lowerback 32.847 -1.81412 0.990389
upperback 6.29662 -2.74499 0.304581
thorax -9.91654 -1.64109 0.87956
lowerneck -12.663 -2.25195 -5.56978
upperneck 2.8385 -2.60241 6.42785
head 3.04433 -1.10611 2.69538
rclavicle 9.93923e-016 -2.10712e-014
rhumerus -37.0638 -11.3369 -78.0787
rradius 30.756
rwrist 31.015
rhand -4.46497 -5.02979
rfingers 7.12502
rthumb 21.3074 -33.8785
lclavicle 9.93923e-016 -2.10712e-014
lhumerus -14.0127 29.1314 82.1307
lradius 31.7262
lwrist -229.115
lhand -11.6499 6.04022
lfingers 7.12502
lthumb 14.3944 35.5211
rfemur -174.112 -174.486 203.126
rtibia 38.729
rfoot 155.783 154.353
rtoes 1.47302
lfemur 1.3787 3.62797 -14.7692
ltibia 46.284
lfoot -22.6002 23.214
ltoes 14.306
831
root 3.79594 16.5653 -1.38279 130.261 -82.2694 -147.934
lowerback 32.7641 -1.79927 0.864797
upperback 6.24045 -2.75817 0.312287
thorax -9.94168 -1.6398 0.958073
lowerneck -12.6843 -2.13677 -5.29026
upperneck 2.85832 -2.47735 6.20816
head 3.0392 -1.04941 2.59069
rclavicle -2.80286e-014 1.47101e-014
rhumerus -37.084 -11.6485 -77.9316
rradius 30.5818
rwrist 31.128
rhand -4.47847 -4.85809
rfingers 7.12502
rthumb 21.2944 -33.7082
lclavicle -2.80286e-014 1.47101e-014
lhumerus -13.6742 30.9603 82.1801
lradius 30.7231
lwrist -231.074
lhand -11.6241 6.05406
lfingers 7.12502
lthumb 14.4192 35.5332
rfemur -174.255 -174.478 203.081
rtibia 38.8709
rfoot 155.654 154.153
rtoes 1.56728
lfemur 1.36855 3.59392 -14.8803
ltibia 46.0641
lfoot -22.6844 23.1615
ltoes 14.2734
832
root 3.80749 16.5665 -1.36507 129.554 -82.45 -147.206
lowerback 32.7191 -1.78049 0.694065
upperback 6.17254 -2.78003 0.327607
thorax -9.9927 -1.64106 1.07367
lowerneck -12.6143 -2.03 -5.1341
upperneck 2.58033 -2.33835 5.87367
head 3.27212 -1.00828 2.74201
rclavicle -2.75317e-014 0
rhumerus -37.1549 -12.0089 -77.7548
rradius 30.4395
rwrist 31.3413
rhand -4.4725 -4.72369
rfingers 7.12502
rthumb 21.3002 -33.5732
lclavicle -2.75317e-014 0
lhumerus -13.3939 32.8342 82.1986
lradius 29.7455
lwrist -233.094
lhand -11.6495 6.12267
lfingers 7.12502
lthumb 14.3948 35.6035
rfemur -174.375 -174.454 203.014
rtibia 39.0217
rfoot 155.503 153.948
rtoes 1.58983
lfemur 1.38243 3.57692 -14.9842
ltibia 45.8547
lfoot -22.7699 23.0406
ltoes 14.1236
833
root 3.81802 16.5671 -1.35008 128.856 -82.6506 -146.509
lowerback 32.6687 -1.75392 0.516617
upperback 6.12187 -2.79891 0.315857
thorax -10.0233 -1.64148 1.16245
lowerneck -12.6283 -1.93318 -4.88167
upperneck 2.61589 -2.23776 5.70847
head 3.27078 -0.961135 2.64416
rclavicle -4.54223e-014 1.27222e-014
rhumerus -37.2285 -12.4198 -77.6091
rradius 30.3006
rwrist 31.5419
rhand -4.42427 -4.58041
rfingers 7.12502
rthumb 21.3465 -33.4246
lclavicle -4.54223e-014 1.27222e-014
lhumerus -13.1189 34.6874 82.1803
lradius 28.7814
lwrist -235.186
lhand -11.6682 6.29589
lfingers 7.12502
lthumb 14.3767 35.778
rfemur -174.463 -174.436 202.935
rtibia 39.1834
rfoot 155.346 153.735
rtoes 1.68729
lfemur 1.41501 3.57682 -15.0932
ltibia 45.6578
lfoot -22.8221 22.9075
ltoes 13.9785
834
root 3.82829 16.5678 -1.33717 127.903 -82.8557 -145.559
lowerback 32.607 -1.72911 0.303473
upperback 6.08715 -2.82765 0.358207
thorax -10.0275 -1.64665 1.33045
lowerneck -12.6679 -1.84256 -4.75947
upperneck 2.63605 -2.1257 5.57324
head 3.27255 -0.908612 2.58242
rclavicle -1.64991e-014 2.78299e-015
rhumerus -37.2598 -12.7232 -77.4346
rradius 30.181
rwrist 31.6881
rhand -4.3525 -4.45067
rfingers 7.12502
rthumb 21.4154 -33.2871
lclavicle -1.64991e-014 2.78299e-015
lhumerus -12.8156 36.7513 82.2342
lradius 27.7993
lwrist -237.51
lhand -11.6326 6.44088
lfingers 7.12502
lthumb 14.4111 35.9206
rfemur -174.553 -174.402 202.883
rtibia 39.3557
rfoot 155.186 153.525
rtoes 1.77187
lfemur 1.43401 3.56598 -15.1735
ltibia 45.4776
lfoot -22.832 22.7725
ltoes 13.8904
835
root 3.84265 16.5676 -1.32566 126.883 -83.0663 -144.561
lowerback 32.611 -1.69625 0.113666
upperback 6.04026 -2.8408 0.375985
thorax -10.0732 -1.6445 1.45684
lowerneck -12.7051 -1.78342 -4.66402
upperneck 2.65795 -2.05596 5.49856
head 3.27937 -0.875126 2.54386
rclavicle -1.83876e-014 -2.78299e-015
rhumerus -37.3168 -13.0785 -77.2731
rradius 30.0712
rwrist 31.8195
rhand -4.27948 -4.31357
rfingers 7.12502
rthumb 21.4856 -33.142
lclavicle -1.83876e-014 -2.78299e-015
lhumerus -12.5363 38.8423 82.2573
lradius 26.8201
lwrist -239.969
lhand -11.5798 6.60008
lfingers 7.12502
lthumb 14.4619 36.0761
rfemur -174.632 -174.35 202.827
rtibia 39.5361
rfoot 155.059 153.346
rtoes 2.08653
lfemur 1.44367 3.56621 -15.2423
ltibia 45.3148
lfoot -22.8117 22.5779
ltoes 13.6932
836
root 3.85822 16.5665 -1.31477 125.767 -83.3009 -143.471
lowerback 32.6335 -1.67644 -0.0875389
upperback 5.99161 -2.8746 0.395897
thorax -10.1271 -1.65148 1.60004
lowerneck -12.7586 -1.73026 -4.63539
upperneck 2.69094 -1.98409 5.4367
head 3.29493 -0.840654 2.5228
rclavicle 1.77912e-014 -1.19271e-015
rhumerus -37.3618 -13.4104 -77.1166
rradius 29.9565
rwrist 31.9986
rhand -4.21593 -4.16077
rfingers 7.12502
rthumb 21.5466 -32.9822
lclavicle 1.77912e-014 -1.19271e-015
lhumerus -12.2764 41.0545 82.2537
lradius 25.8314
lwrist -242.596
lhand -11.4464 6.88398
lfingers 7.12502
lthumb 14.5904 36.3508
rfemur -174.712 -174.278 202.747
rtibia 39.7207
rfoot 154.983 153.209
rtoes 2.46051
lfemur 1.43443 3.55943 -15.3305
ltibia 45.1684
lfoot -22.7417 22.3947
ltoes 13.5711
837
root 3.86974 16.5663 -1.30506 124.634 -83.5226 -142.372
lowerback 32.6015 -1.64992 -0.282236
upperback 5.97188 -2.8988 0.422396
thorax -10.127 -1.65576 1.74042
lowerneck -12.8304 -1.68766 -4.66982
upperneck 2.71378 -1.91772 5.40723
head 3.31296 -0.808384 2.52447
rclavicle -2.88238e-014 1.47101e-014
rhumerus -37.3789 -13.6337 -77.0029
rradius 29.8715
rwrist 32.0541
rhand -4.12408 -4.09828
rfingers 7.12502
rthumb 21.6348 -32.9096
lclavicle -2.88238e-014 1.47101e-014
lhumerus -12.0087 43.3628 82.2774
lradius 24.858
lwrist -245.376
lhand -11.2709 7.17046
lfingers 7.12502
lthumb 14.7596 36.6249
rfemur -174.76 -174.226 202.684
rtibia 39.9067
rfoot 154.9 153.094
rtoes 2.94378
lfemur 1.44794 3.56193 -15.4042
ltibia 45.0332
lfoot -22.694 22.2061
ltoes 13.4263
838
root 3.88111 16.5657 -1.29568 123.607 -83.7475 -141.381
lowerback 32.5921 -1.63013 -0.455987
upperback 5.92693 -2.92506 0.426298
thorax -10.1656 -1.65979 1.84803
lowerneck -12.8462 -1.66309 -4.76263
upperneck 2.71534 -1.87015 5.42011
head 3.31601 -0.785182 2.54997
rclavicle 2.71341e-014 -4.77083e-015
rhumerus -37.456 -13.7903 -76.9164
rradius 29.8242
rwrist 32.0925
rhand -4.02191 -4.04056
rfingers 7.12502
rthumb 21.7329 -32.8405
lclavicle 2.71341e-014 -4.77083e-015
lhumerus -11.8233 45.8032 82.217
lradius 23.907
lwrist -248.329
lhand -11.0875 7.47715
lfingers 7.12502
lthumb 14.9362 36.9186
rfemur -174.802 -174.199 202.604
rtibia 40.0955
rfoot 154.809 153.027
rtoes 3.41771
lfemur 1.45765 3.56493 -15.5058
ltibia 44.905
lfoot -22.613 22.0352
ltoes 13.3156
839
root 3.89237 16.5651 -1.28685 122.529 -83.975 -140.339
lowerback 32.5585 -1.61464 -0.614754
upperback 5.9108 -2.95451 0.426112
thorax -10.163 -1.66751 1.94276
lowerneck -12.9297 -1.65053 -4.92118
upperneck 2.73222 -1.82929 5.47742
head 3.34023 -0.763677 2.60353
rclavicle 2.18663e-015 9.54166e-015
rhumerus -37.4569 -13.9769 -76.8419
rradius 29.7496
rwrist 32.1946
rhand -3.88728 -4.04182
rfingers 7.12502
rthumb 21.8622 -32.8268
lclavicle 2.18663e-015 9.54166e-015
lhumerus -11.739 47.5599 82.2012
lradius 23.3013
lwrist -250.643
lhand -11.0194 7.66297
lfingers 7.12502
lthumb 15.0018 37.0995
rfemur -174.828 -174.228 202.544
rtibia 40.2813
rfoot 154.716 152.964
rtoes 3.9147
lfemur 1.46663 3.53475 -15.6243
ltibia 44.7815
lfoot -22.5165 21.9035
ltoes 13.1386
840
root 3.90361 16.5648 -1.2777 121.5 -84.1973 -139.343
lowerback 32.5308 -1.60322 -0.739975
upperback 5.87775 -2.97896 0.401744
thorax -10.184 -1.67249 1.99281
lowerneck -12.9624 -1.65183 -5.11469
upperneck 2.72212 -1.80546 5.58054
head 3.34795 -0.749912 2.67795
rclavicle -3.48867e-014 8.34896e-015
rhumerus -37.4958 -14.1467 -76.7932
rradius 29.676
rwrist 32.2937
rhand -3.78884 -4.00919
rfingers 7.12502
rthumb 21.9567 -32.7831
lclavicle -3.48867e-014 8.34896e-015
lhumerus -11.7029 49.1807 82.1387
lradius 22.7493
lwrist -252.9
lhand -11.017 7.81639
lfingers 7.12502
lthumb 15.0041 37.2528
rfemur -174.856 -174.258 202.483
rtibia 40.4637
rfoot 154.666 152.939
rtoes 4.47718
lfemur 1.46546 3.52424 -15.7409
ltibia 44.6699
lfoot -22.4196 21.7319
ltoes 12.9523
841
root 3.91507 16.5644 -1.2697 120.587 -84.4255 -138.492
lowerback 32.5229 -1.57875 -0.902263
upperback 5.86451 -3.00046 0.392344
thorax -10.1886 -1.67676 2.07755
lowerneck -13.104 -1.65497 -5.3149
upperneck 3.03283 -1.79461 5.89202
head 3.11476 -0.716876 2.54104
rclavicle 1.09332e-014 -1.19271e-014
rhumerus -37.4852 -14.1783 -76.7864
rradius 29.6214
rwrist 32.3319
rhand -3.63187 -3.98603
rfingers 7.12502
rthumb 22.1074 -32.7422
lclavicle 1.09332e-014 -1.19271e-014
lhumerus -11.6426 50.6253 82.1151
lradius 22.2397
lwrist -254.902
lhand -11.0218 7.92742
lfingers 7.12502
lthumb 14.9995 37.3642
rfemur -174.841 -174.306 202.405
rtibia 40.636
rfoot 154.647 152.991
rtoes 5.03249
lfemur 1.48537 3.49475 -15.8894
ltibia 44.5724
lfoot -22.3288 21.631
ltoes 12.7313
